<?xml version="1.0" encoding="UTF-8" standalone="no"?>
<svg
   xmlns:dc="http://purl.org/dc/elements/1.1/"
   xmlns:cc="http://creativecommons.org/ns#"
   xmlns:rdf="http://www.w3.org/1999/02/22-rdf-syntax-ns#"
   xmlns:svg="http://www.w3.org/2000/svg"
   xmlns="http://www.w3.org/2000/svg"
   xmlns:sodipodi="http://sodipodi.sourceforge.net/DTD/sodipodi-0.dtd"
   xmlns:inkscape="http://www.inkscape.org/namespaces/inkscape"
   width="298.45001"
   height="338.341"
   viewBox="0 0 298.45001 338.341"
   version="1.1"
   id="svg3564"
   inkscape:version="0.91 r13725"
   sodipodi:docname="css3.svg">
  <metadata
     id="metadata3590">
    <rdf:RDF>
      <cc:Work
         rdf:about="">
        <dc:format>image/svg+xml</dc:format>
        <dc:type
           rdf:resource="http://purl.org/dc/dcmitype/StillImage" />
        <dc:title>Slice 1</dc:title>
      </cc:Work>
    </rdf:RDF>
  </metadata>
  <sodipodi:namedview
     pagecolor="#ffffff"
     bordercolor="#666666"
     borderopacity="1"
     objecttolerance="10"
     gridtolerance="10"
     guidetolerance="10"
     inkscape:pageopacity="0"
     inkscape:pageshadow="2"
     inkscape:window-width="1920"
     inkscape:window-height="1021"
     id="namedview3588"
     showgrid="false"
     inkscape:zoom="0.79465333"
     inkscape:cx="741.07064"
     inkscape:cy="116.73194"
     inkscape:window-x="0"
     inkscape:window-y="27"
     inkscape:window-maximized="1"
     inkscape:current-layer="svg3564" />
  <title
     id="title3566">Slice 1</title>
  <description>Created with Sketch (http://www.bohemiancoding.com/sketch)</description>
  <defs
     id="defs3568" />
  <g
     id="Page 1"
     style="fill:none;fill-rule:evenodd;stroke:none;stroke-width:1"
     transform="translate(0,-81.659007)">
    <g
       id="Layer_1">
      <path
         d="M 27.142,386.29 0.071,82.67 l 297.45,0 -27.096,303.571 -121.811,33.77 L 27.142,386.29 Z m 0,0"
         id="path3573"
         style="fill:#0d57a7;fill-opacity:1"
         inkscape:connector-curvature="0" />
      <path
         d="m 148.798,394.199 98.427,-27.288 23.157,-259.415 -121.584,0 0,286.703 z m 0,0"
         id="path3575"
         style="fill:#409ad6;fill-opacity:1"
         inkscape:connector-curvature="0" />
      <g
         id="Group"
         transform="translate(55,142)">
        <path
           d="m 93.797,75.496 49.275,0 3.403,-38.132 -52.678,0 0,-37.239 0.129,0 93.246,0 -0.893,9.991 -9.152,102.616 -83.33,0 0,-37.236 z m 0,0"
           id="path3578"
           inkscape:connector-curvature="0"
           style="fill:#ffffff" />
        <path
           d="m 94.02,172.204 -0.163,0.046 -41.472,-11.199 -2.652,-29.698 -20.151,0 -17.228,0 5.216,58.467 76.278,21.176 0.172,-0.048 0,-38.744 z m 0,0"
           id="path3580"
           inkscape:connector-curvature="0"
           style="fill:#ebebeb" />
        <path
           d="m 139.907,111.156 -4.484,49.87 -41.532,11.21 0,38.742 76.339,-21.158 0.56,-6.29 6.478,-72.374 -37.361,0 z m 0,0"
           id="path3582"
           inkscape:connector-curvature="0"
           style="fill:#ffffff" />
        <path
           d="m 93.926,0.125 0,23.128 0,14.019 0,0.092 -89.828,0 -0.119,0 -0.747,-8.37 -1.697,-18.878 -0.89,-9.991 93.281,0 z m 0,0"
           id="path3584"
           inkscape:connector-curvature="0"
           style="fill:#ebebeb" />
        <path
           d="m 93.797,75.5 0,23.129 0,14.017 0,0.092 -40.828,0 -0.119,0 -0.746,-8.369 -1.698,-18.878 -0.89,-9.991 44.281,0 z m 0,0"
           id="path3586"
           inkscape:connector-curvature="0"
           style="fill:#ebebeb" />
      </g>
    </g>
  </g>
</svg>
